
<svg width="16" height="14" viewBox="0 0 16 14" fill="none" xmlns="http://www.w3.org/2000/svg">
<path d="M8.70697 0.500001C8.51945 0.31253 8.26514 0.207214 7.99997 0.207214C7.73481 0.207214 7.4805 0.31253 7.29297 0.500001L0.645973 7.146C0.552219 7.23989 0.499601 7.36717 0.499695 7.49985C0.499789 7.63254 0.552586 7.75975 0.646473 7.8535C0.74036 7.94726 0.867645 7.99987 1.00033 7.99978C1.13301 7.99968 1.26022 7.94689 1.35397 7.853L1.99997 7.207V12.5C1.99997 12.8978 2.15801 13.2794 2.43931 13.5607C2.72062 13.842 3.10215 14 3.49997 14H12.5C12.8978 14 13.2793 13.842 13.5606 13.5607C13.8419 13.2794 14 12.8978 14 12.5V7.207L14.646 7.853C14.7397 7.94689 14.8669 7.99968 14.9996 7.99978C15.1323 7.99987 15.2596 7.94726 15.3535 7.8535C15.4474 7.75975 15.5002 7.63254 15.5003 7.49985C15.5003 7.36717 15.4477 7.23989 15.354 7.146L13 4.793V1.5C13 1.36739 12.9473 1.24022 12.8535 1.14645C12.7598 1.05268 12.6326 1 12.5 1H11.5C11.3674 1 11.2402 1.05268 11.1464 1.14645C11.0527 1.24022 11 1.36739 11 1.5V2.793L8.70697 0.500001ZM13 6.207V12.5C13 12.6326 12.9473 12.7598 12.8535 12.8536C12.7598 12.9473 12.6326 13 12.5 13H3.49997C3.36736 13 3.24019 12.9473 3.14642 12.8536C3.05265 12.7598 2.99997 12.6326 2.99997 12.5V6.207L7.99997 1.207L13 6.207Z" fill="white"/>
</svg>
