<svg width="16" height="16" viewBox="0 0 16 16" fill="none" xmlns="http://www.w3.org/2000/svg">
<g clip-path="url(#clip0_62_129)">
<g clip-path="url(#clip1_62_129)">
<path d="M14 1C14.2652 1 14.5196 1.10536 14.7071 1.29289C14.8946 1.48043 15 1.73478 15 2V14C15 14.2652 14.8946 14.5196 14.7071 14.7071C14.5196 14.8946 14.2652 15 14 15H2C1.73478 15 1.48043 14.8946 1.29289 14.7071C1.10536 14.5196 1 14.2652 1 14V2C1 1.73478 1.10536 1.48043 1.29289 1.29289C1.48043 1.10536 1.73478 1 2 1H14ZM2 0C1.46957 0 0.960859 0.210714 0.585786 0.585786C0.210714 0.960859 0 1.46957 0 2L0 14C0 14.5304 0.210714 15.0391 0.585786 15.4142C0.960859 15.7893 1.46957 16 2 16H14C14.5304 16 15.0391 15.7893 15.4142 15.4142C15.7893 15.0391 16 14.5304 16 14V2C16 1.46957 15.7893 0.960859 15.4142 0.585786C15.0391 0.210714 14.5304 0 14 0L2 0Z" fill="#F5F7F8"/>
<path d="M4.64598 4.64598C4.69242 4.59941 4.7476 4.56247 4.80834 4.53727C4.86909 4.51206 4.93421 4.49908 4.99998 4.49908C5.06575 4.49908 5.13087 4.51206 5.19161 4.53727C5.25236 4.56247 5.30753 4.59941 5.35398 4.64598L7.99998 7.29298L10.646 4.64598C10.6925 4.59949 10.7477 4.56261 10.8084 4.53745C10.8691 4.5123 10.9342 4.49935 11 4.49935C11.0657 4.49935 11.1308 4.5123 11.1916 4.53745C11.2523 4.56261 11.3075 4.59949 11.354 4.64598C11.4005 4.69247 11.4373 4.74766 11.4625 4.80839C11.4877 4.86913 11.5006 4.93423 11.5006 4.99998C11.5006 5.06572 11.4877 5.13082 11.4625 5.19156C11.4373 5.2523 11.4005 5.30749 11.354 5.35398L8.70698 7.99998L11.354 10.646C11.4005 10.6925 11.4373 10.7477 11.4625 10.8084C11.4877 10.8691 11.5006 10.9342 11.5006 11C11.5006 11.0657 11.4877 11.1308 11.4625 11.1916C11.4373 11.2523 11.4005 11.3075 11.354 11.354C11.3075 11.4005 11.2523 11.4373 11.1916 11.4625C11.1308 11.4877 11.0657 11.5006 11 11.5006C10.9342 11.5006 10.8691 11.4877 10.8084 11.4625C10.7477 11.4373 10.6925 11.4005 10.646 11.354L7.99998 8.70698L5.35398 11.354C5.30749 11.4005 5.2523 11.4373 5.19156 11.4625C5.13082 11.4877 5.06572 11.5006 4.99998 11.5006C4.93423 11.5006 4.86913 11.4877 4.80839 11.4625C4.74766 11.4373 4.69247 11.4005 4.64598 11.354C4.59949 11.3075 4.56261 11.2523 4.53745 11.1916C4.5123 11.1308 4.49935 11.0657 4.49935 11C4.49935 10.9342 4.5123 10.8691 4.53745 10.8084C4.56261 10.7477 4.59949 10.6925 4.64598 10.646L7.29298 7.99998L4.64598 5.35398C4.59941 5.30753 4.56247 5.25236 4.53727 5.19161C4.51206 5.13087 4.49908 5.06575 4.49908 4.99998C4.49908 4.93421 4.51206 4.86909 4.53727 4.80834C4.56247 4.7476 4.59941 4.69242 4.64598 4.64598Z" fill="#F5F7F8"/>
</g>
</g>
<defs>
<clipPath id="clip0_62_129">
<rect width="16" height="16" fill="white"/>
</clipPath>
<clipPath id="clip1_62_129">
<rect width="16" height="16" fill="white"/>
</clipPath>
</defs>
</svg>
