<svg width="16" height="16" viewBox="0 0 16 16" fill="none" xmlns="http://www.w3.org/2000/svg">
<g clip-path="url(#clip0_66_460)">
<path fill-rule="evenodd" clip-rule="evenodd" d="M11.5 1.24601C12.332 0.391006 14.413 1.88801 11.5 3.81201C8.587 1.88801 10.668 0.391006 11.5 1.24601ZM9 5.00001C9 5.79566 8.68393 6.55872 8.12132 7.12133C7.55871 7.68394 6.79565 8.00001 6 8.00001C5.20435 8.00001 4.44129 7.68394 3.87868 7.12133C3.31607 6.55872 3 5.79566 3 5.00001C3 4.20436 3.31607 3.4413 3.87868 2.87869C4.44129 2.31608 5.20435 2.00001 6 2.00001C6.79565 2.00001 7.55871 2.31608 8.12132 2.87869C8.68393 3.4413 9 4.20436 9 5.00001ZM0 13C0 14 1 14 1 14H11C11 14 12 14 12 13C12 12 11 9.00001 6 9.00001C1 9.00001 0 12 0 13ZM13.5 4.91001C14.887 3.48501 18.355 5.98001 13.5 9.18701C8.646 5.98001 12.113 3.48401 13.5 4.91001ZM15 2.16501C15.555 1.59501 16.942 2.59301 15 3.87601C13.058 2.59301 14.445 1.59401 15 2.16501Z" fill="#F5F7F8"/>
</g>
<defs>
<clipPath id="clip0_66_460">
<rect width="16" height="16" fill="white"/>
</clipPath>
</defs>
</svg>
